<svg xmlns="http://www.w3.org/2000/svg" viewBox="0 0 23.98 22.83"><defs><style>.cls-1{fill:#fff;}</style></defs><title>Asset 15</title><g id="Layer_2" data-name="Layer 2"><g id="Layer_1-2" data-name="Layer 1"><path class="cls-1" d="M12,0C5.43,0,0,4.35,0,9.87c0,3,1.73,5.5,4.28,7.27L2.25,22a.6.6,0,0,0,.79.73l6.39-3.45a12.23,12.23,0,0,0,2.57.41c6.56,0,12-4.35,12-9.87S18.55,0,12,0Zm0,1.14c6.06,0,10.85,4,10.85,8.73S18,18.6,12,18.6a15.1,15.1,0,0,1-2.53-.43.58.58,0,0,0-.37.05L3.93,21,5.5,17.17a.59.59,0,0,0-.23-.7C2.7,14.84,1.14,12.63,1.14,9.87,1.21,4,7.74,1,12,1.14Z"/></g></g></svg>