<svg xmlns="http://www.w3.org/2000/svg" viewBox="0 0 2089.13 514"><defs><style>.cls-1{fill:#fff;}</style></defs><title>Asset 2</title><g id="Layer_2" data-name="Layer 2"><g id="Layer_1-2" data-name="Layer 1"><path class="cls-1" d="M525,28.48A28.48,28.48,0,0,0,496.52,0h-468A28.48,28.48,0,0,0,0,28.48v457A28.48,28.48,0,0,0,28.48,514h468A28.48,28.48,0,0,0,525,485.52ZM251,355.7c18.7,0,38.15-6.66,44.79-9.09a3.59,3.59,0,0,1,4.6,1.78c13,27.72,30.35,40.5,34.37,46.09,2,2.83-1.78,4.86-1.78,4.86-20.94,12.79-54.42,19.75-81.91,19.95-96.17.71-171-74.44-171-163.14,0-96.67,76-167.18,167.77-164,37.56,0,72.57,13.32,96.94,29.05,6.42,4.15,6.3,6.15,4.94,8.05-5.4,7.51-20.1,29.27-27.51,44.53a3.9,3.9,0,0,1-6,1.33c-15.73-10.29-37-20.3-72.08-20.3-54.26,0-95.57,42.42-95.57,100.15S196.75,355.79,251,355.7Zm145.68,5a46.62,46.62,0,1,1,46.61-46.63A46.62,46.62,0,0,1,396.68,360.71Z"/><path class="cls-1" d="M618.21,255.77c0-71.21,53.85-119.78,123.24-119.78,51.07,0,80.54,27.78,96.87,56.62L796,213.36c-9.75-18.73-30.55-33.64-54.53-33.64-42,0-72.54,32.27-72.54,76s30.51,76,72.54,76c24,0,44.78-14.58,54.53-33.7l42.34,20.51c-16.64,28.8-45.8,56.89-96.87,56.89-69.38,0-123.24-48.59-123.24-119.71"/><path class="cls-1" d="M859.24,255.77c0-69.82,51.1-119.78,120.85-119.78,70.13,0,121.13,50,121.13,119.78s-51,119.71-121.13,119.71c-69.75,0-120.85-50-120.85-119.71m191.31,0c0-43.38-27.76-76-70.46-76s-70.15,32.67-70.15,76c0,43,27.45,76,70.15,76s70.46-33,70.46-76"/><polygon class="cls-1" points="1302.48 371.37 1192.04 220.36 1192.04 371.37 1142.78 371.37 1142.78 139.77 1193.47 139.77 1300.74 285.25 1300.74 139.77 1350.05 139.77 1350.05 371.37 1302.48 371.37"/><path class="cls-1" d="M1391.53,255.77c0-71.21,53.82-119.78,123.18-119.78,51.11,0,80.58,27.78,96.91,56.62l-42.38,20.76c-9.72-18.73-30.56-33.64-54.54-33.64-41.95,0-72.51,32.27-72.51,76s30.56,76,72.51,76c24,0,44.81-14.58,54.54-33.7l42.38,20.51c-16.66,28.8-45.81,56.89-96.91,56.89-69.36,0-123.18-48.59-123.18-119.71"/><path class="cls-1" d="M1644,279V139.77h50.07V277.29c0,32.26,18.65,54.49,54.46,54.49s54.18-22.23,54.18-54.49V139.77h50.38v138.9c0,57.58-34.1,96.81-104.55,96.81S1644,336,1644,279"/><path class="cls-1" d="M2032.56,371.37l-45.47-82.28H1951v82.28h-49.33V139.77H2010c48.23,0,77.74,31.56,77.74,74.66,0,40.95-25.68,62.86-50.66,68.72l52.06,88.22Zm4.83-156.94c0-19.48-14.86-31.27-34.7-31.27H1951v62.53h51.7c19.84,0,34.7-11.86,34.7-31.27"/></g></g></svg>